<svg xmlns="http://www.w3.org/2000/svg" version="1.0" width="1011.000000pt" height="247.000000pt" viewBox="0 0 1011.000000 247.000000" preserveAspectRatio="xMidYMid meet">

<g transform="translate(0.000000,247.000000) scale(0.100000,-0.100000)" fill="#ffffff" stroke="none">
<path d="M640 2055 c-90 -25 -161 -66 -225 -130 -97 -97 -155 -231 -174 -400 -10 -92 -9 -93 74 -124 141 -53 383 -78 597 -62 132 10 141 12 177 40 93 74 164 95 434 128 45 6 82 -15 91 -52 10 -40 -17 -73 -84 -104 l-58 -26 126 -1 c135 -1 220 -18 262 -52 33 -26 31 -78 -2 -107 -25 -21 -25 -22 -7 -44 23 -28 24 -50 5 -77 -9 -11 -12 -30 -9 -46 6 -32 -17 -73 -46 -83 -11 -3 -22 -19 -26 -35 -7 -34 -49 -67 -94 -76 -72 -15 -33 -24 98 -24 178 0 270 13 402 56 l106 35 52 79 c63 95 104 184 133 287 17 62 22 102 21 198 -3 326 -153 553 -410 620 -124 32 -311 9 -426 -52 -68 -36 -195 -163 -236 -235 -18 -32 -39 -58 -46 -58 -8 0 -30 24 -49 53 -90 134 -217 237 -344 278 -89 28 -263 35 -342 14z" fill="#ffffff"/>
<path d="M8248 1763 c-30 -19 -73 -94 -107 -189 -18 -49 -70 -122 -277 -382 -140 -177 -258 -322 -262 -322 -7 0 5 113 67 635 20 170 18 201 -13 175 -9 -7 -145 -190 -302 -406 -158 -217 -289 -393 -291 -391 -2 2 19 127 47 278 27 151 50 298 50 328 0 48 -3 57 -35 87 -19 18 -35 35 -35 38 0 3 31 6 69 6 62 0 70 2 85 25 9 13 16 29 16 35 0 16 -373 13 -413 -4 -18 -7 -52 -35 -75 -61 -44 -51 -57 -83 -19 -48 41 38 64 43 181 43 124 0 140 -6 152 -57 6 -21 -110 -708 -132 -784 -7 -24 24 -31 44 -10 9 9 145 194 301 409 156 216 287 392 291 392 5 0 6 -15 4 -32 -3 -18 -27 -199 -53 -403 -47 -364 -49 -396 -15 -377 7 4 153 185 325 402 172 217 352 440 401 495 49 55 87 106 86 115 -4 21 -58 23 -90 3z" fill="#ffffff"/>
<path d="M3650 1699 c-25 -12 -55 -25 -68 -30 l-24 -9 26 -31 26 -31 0 -399 c0 -339 -2 -404 -15 -429 -9 -17 -20 -30 -25 -30 -6 0 -10 -4 -10 -10 0 -6 38 -10 95 -10 52 0 95 4 95 8 0 5 -9 17 -20 27 -19 18 -20 31 -21 474 0 251 -3 464 -7 473 -7 16 -10 16 -52 -3z" fill="#ffffff"/>
<path d="M4390 1699 c-25 -12 -56 -25 -69 -30 l-24 -10 24 -25 c23 -24 24 -33 27 -180 2 -85 1 -154 -1 -154 -3 0 -24 9 -48 20 -55 25 -175 27 -242 4 -52 -18 -125 -78 -157 -130 -27 -43 -50 -125 -50 -181 0 -22 8 -68 19 -102 36 -115 121 -188 230 -198 75 -7 119 8 187 63 29 24 56 44 59 44 3 0 5 -17 5 -38 0 -51 14 -62 82 -62 54 0 77 13 44 26 -8 3 -18 13 -23 22 -4 9 -10 227 -13 484 l-5 467 -45 -20z m-160 -399 c44 -23 95 -76 109 -113 6 -16 11 -97 11 -182 l0 -153 -32 -28 c-89 -74 -207 -73 -282 2 -39 40 -72 109 -85 179 -15 79 -14 112 5 176 37 124 160 177 274 119z" fill="#ffffff"/>
<path d="M5817 1687 l-67 -32 25 -24 26 -24 -3 -417 c-3 -382 -5 -420 -20 -437 -10 -11 -18 -23 -18 -26 0 -4 43 -7 95 -7 52 0 95 2 95 5 0 2 -11 15 -25 29 l-25 25 0 465 c0 256 -3 467 -8 470 -4 2 -37 -10 -75 -27z" fill="#ffffff"/>
<path d="M2857 1583 c-4 -3 3 -17 15 -31 23 -23 23 -27 26 -350 4 -362 0 -424 -29 -453 -10 -10 -19 -21 -19 -24 0 -3 136 -4 303 -3 l302 3 2 80 c2 67 0 77 -10 60 -28 -47 -94 -103 -132 -114 -55 -15 -287 -15 -303 1 -9 9 -12 70 -12 215 l0 203 131 0 c100 0 139 -4 165 -16 19 -9 34 -19 34 -23 0 -4 7 -16 15 -27 13 -17 14 -10 15 74 0 86 -11 117 -25 72 -13 -40 -61 -54 -202 -58 l-133 -4 0 191 0 191 110 0 c153 0 202 -12 253 -64 23 -22 48 -50 55 -61 11 -17 12 -9 8 53 -3 39 -8 77 -11 82 -7 11 -547 14 -558 3z" fill="#ffffff"/>
<path d="M1470 1455 c-36 -7 -96 -16 -135 -19 -76 -8 -166 -46 -222 -93 -31 -28 -32 -30 -44 -164 -6 -75 -8 -166 -4 -203 6 -63 8 -67 24 -52 10 9 28 16 42 16 49 0 246 -31 300 -48 52 -17 56 -17 52 -1 -4 14 9 17 99 23 123 8 203 29 218 56 14 26 -2 33 -47 20 -49 -14 -259 -25 -307 -16 -28 5 -36 12 -34 24 3 15 24 18 168 23 181 6 240 20 240 58 0 36 -31 43 -150 30 -141 -15 -260 -5 -260 21 0 16 14 18 168 22 144 3 174 7 215 25 61 28 64 56 10 81 -32 14 -72 17 -250 17 -151 0 -214 3 -217 11 -8 20 36 50 114 79 92 35 120 52 120 75 0 14 -24 34 -33 29 -1 0 -31 -7 -67 -14z" fill="#ffffff"/>
<path d="M195 1383 c-77 -76 -51 -229 56 -334 76 -74 220 -142 374 -175 81 -18 301 -30 367 -20 l46 7 -10 42 c-11 44 -5 350 7 379 7 16 -5 17 -167 11 -258 -9 -470 20 -605 82 -47 21 -54 22 -68 8z" fill="#ffffff"/>
<path d="M5293 1319 c-35 -16 -63 -32 -63 -35 0 -4 7 -12 16 -18 25 -19 34 -82 33 -251 0 -183 -9 -254 -33 -267 -35 -20 -12 -28 79 -28 57 0 95 4 95 10 0 6 -5 10 -11 10 -27 0 -39 70 -39 238 0 160 1 171 25 219 40 79 50 85 115 68 86 -23 136 -20 156 10 23 35 14 57 -26 68 -75 19 -195 -32 -236 -102 -10 -17 -22 -31 -26 -31 -4 0 -8 29 -8 64 0 36 -3 67 -7 69 -5 2 -36 -9 -70 -24z" fill="#ffffff"/>
<path d="M4771 1323 c-67 -24 -153 -113 -181 -188 -30 -83 -25 -197 13 -271 71 -139 239 -194 382 -125 59 28 176 134 162 147 -3 4 -27 -12 -53 -35 -132 -116 -330 -78 -408 77 -23 44 -39 138 -31 179 l6 33 239 0 c270 0 257 -4 221 76 -22 49 -78 97 -130 113 -53 15 -167 12 -220 -6z m177 -25 c37 -23 92 -100 92 -130 0 -17 -14 -18 -191 -18 l-190 0 7 23 c12 40 41 92 62 110 55 50 153 56 220 15z" fill="#ffffff"/>
<path d="M6000 1335 c0 -3 15 -20 33 -38 24 -25 62 -102 145 -298 61 -145 112 -272 112 -282 0 -21 -58 -114 -88 -141 -19 -16 -27 -17 -89 -6 -90 16 -121 11 -147 -23 -19 -25 -19 -28 -4 -44 22 -21 125 -20 170 3 48 24 104 81 143 144 18 30 86 179 151 330 95 221 126 282 156 312 21 21 38 40 38 43 0 3 -29 5 -65 5 -36 0 -65 -2 -65 -5 0 -3 9 -14 21 -26 15 -15 19 -28 14 -47 -8 -36 -169 -412 -175 -412 -8 0 -190 426 -190 444 0 8 5 18 10 21 27 17 2 25 -80 25 -49 0 -90 -2 -90 -5z" fill="#ffffff"/>
<path d="M8359 1326 c-72 -19 -138 -63 -220 -146 -101 -101 -162 -218 -167 -321 -4 -62 -2 -70 21 -93 15 -14 37 -26 50 -26 52 0 185 111 318 265 40 47 74 83 77 81 2 -3 -8 -24 -22 -48 -40 -68 -76 -174 -76 -223 0 -97 70 -100 188 -6 57 46 66 70 10 28 -152 -114 -118 79 63 359 39 60 58 99 52 105 -14 14 -141 39 -198 38 -27 0 -71 -6 -96 -13z m99 -41 c37 -9 73 -20 81 -24 30 -19 -334 -420 -408 -451 -32 -13 -35 -12 -53 11 -17 20 -19 33 -13 83 17 152 116 320 218 371 59 29 84 31 175 10z" fill="#ffffff"/>
<path d="M8841 1319 c-44 -27 -122 -92 -117 -97 3 -2 22 8 43 22 101 69 124 6 83 -239 -41 -248 -91 -385 -156 -422 l-34 -19 -92 23 c-105 26 -138 21 -162 -26 -18 -35 -11 -49 28 -56 139 -27 388 111 556 307 141 164 278 398 283 485 2 34 -1 38 -24 41 -17 2 -37 -6 -55 -22 -28 -24 -29 -27 -34 -143 l-5 -118 -54 -79 c-54 -77 -180 -226 -216 -256 -21 -17 -23 -34 19 145 14 61 33 173 42 250 13 119 14 146 2 180 -11 34 -18 40 -43 43 -17 1 -44 -7 -64 -19z" fill="#ffffff"/>
<path d="M9590 1331 c-105 -34 -170 -101 -170 -175 0 -13 23 -69 50 -125 62 -126 66 -173 20 -219 -51 -51 -126 -54 -170 -7 -19 20 -22 32 -18 75 3 27 3 50 0 50 -16 0 -71 -53 -82 -79 -29 -71 27 -118 130 -108 144 13 262 118 246 219 -4 22 -27 80 -52 130 -50 100 -59 155 -29 188 24 26 41 25 109 -6 72 -33 121 -30 149 9 17 21 18 30 9 39 -15 15 -155 21 -192 9z" fill="#ffffff"/>
<path d="M1117 894 c-27 -28 14 -61 118 -94 50 -16 106 -56 99 -73 -3 -9 -56 -12 -207 -12 -170 0 -208 -3 -240 -17 -30 -14 -38 -22 -35 -40 5 -40 88 -60 255 -62 145 -2 179 -10 148 -36 -11 -9 -51 -11 -163 -7 -81 3 -156 8 -168 12 -13 4 -29 0 -44 -13 l-23 -19 20 -20 c30 -30 106 -43 253 -43 122 0 130 -1 130 -19 0 -16 -10 -21 -56 -27 -61 -7 -204 1 -269 16 -46 10 -68 -2 -45 -24 27 -24 83 -37 192 -43 78 -4 108 -10 112 -20 9 -21 -16 -26 -129 -21 -58 2 -105 1 -105 -3 0 -11 51 -29 118 -40 107 -17 475 1 499 24 24 24 16 382 -10 436 -16 35 -112 98 -168 110 -24 5 -84 15 -132 21 -49 6 -100 13 -115 16 -15 3 -30 2 -35 -2z" fill="#ffffff"/>
<path d="M1665 880 c-27 -5 -76 -9 -109 -9 l-59 -1 26 -20 c15 -12 40 -20 64 -20 47 1 135 30 141 48 2 6 0 11 -5 11 -4 -1 -30 -5 -58 -9z" fill="#ffffff"/>
<path d="M478 842 c60 -76 311 -302 335 -302 3 0 12 11 21 25 16 25 16 27 -3 43 -60 51 -19 121 84 142 33 7 108 13 167 14 60 0 108 2 108 3 0 1 -21 12 -47 24 -45 21 -60 22 -218 20 -181 -3 -315 13 -422 50 l-54 18 29 -37z" fill="#ffffff"/>
<path d="M2195 794 c-114 -42 -228 -58 -408 -58 l-169 0 6 -29 c12 -60 18 -275 8 -329 l-9 -58 42 0 c61 0 185 34 261 72 80 39 188 136 240 215 38 57 98 188 92 201 -2 4 -30 -2 -63 -14z" fill="#ffffff"/>
</g>
</svg>